<svg width="800" height="800" viewBox="0 0 800 800" fill="none" xmlns="http://www.w3.org/2000/svg">
<rect width="800" height="800" rx="100" fill="#0A0A0A"/>
<g clip-path="url(#clip0_4_35)">
<path d="M178.264 396.563V546.026C178.264 553.717 175.422 560.404 169.738 566.088C164.388 571.438 157.701 574.113 149.676 574.113C141.985 574.113 135.298 571.438 129.613 566.088C124.264 560.404 121.589 553.717 121.589 546.026V396.563C121.589 388.538 124.264 381.851 129.613 376.501C135.298 370.816 141.985 367.974 149.676 367.974C157.701 367.974 164.388 370.816 169.738 376.501C175.422 381.851 178.264 388.538 178.264 396.563ZM128.109 268.666C121.087 260.307 119.582 251.112 123.595 241.081C127.607 230.716 134.963 224.864 145.663 223.527C156.363 221.855 165.057 225.198 171.744 233.558L357.319 465.276V251.112C357.319 243.422 359.994 236.901 365.344 231.551C371.028 225.867 377.716 223.025 385.406 223.025C393.431 223.025 400.119 225.867 405.469 231.551C411.153 236.901 413.995 243.422 413.995 251.112V546.026H413.493C413.493 551.711 411.822 557.06 408.478 562.076C405.134 567.092 400.62 570.602 394.936 572.609C389.252 574.28 383.567 574.448 377.883 573.11C372.199 571.438 367.35 568.262 363.338 563.581L128.109 268.666Z" fill="white"/>
</g>
<path d="M476.674 279.701H387.899C380.208 279.701 373.521 277.026 367.837 271.676C362.487 265.992 359.812 259.304 359.812 251.614C359.812 243.589 362.487 236.901 367.837 231.551C373.521 225.867 380.208 223.025 387.899 223.025H476.674C516.13 223.025 549.399 232.722 576.483 252.115C603.902 271.174 623.797 296.419 636.168 327.85C645.196 350.587 649.71 374.16 649.71 398.569C649.71 422.978 645.196 446.551 636.168 469.288C623.797 500.719 603.902 526.131 576.483 545.525C549.399 564.584 516.13 574.113 476.674 574.113H387.899C380.208 574.113 373.521 571.438 367.837 566.088C362.487 560.404 359.812 553.717 359.812 546.026V368.977C359.812 361.287 362.487 354.767 367.837 349.417C373.521 343.732 380.208 340.89 387.899 340.89C395.924 340.89 402.611 343.732 407.961 349.417C413.645 354.767 416.487 361.287 416.487 368.977V517.438H476.674C503.423 517.438 525.826 511.085 543.882 498.379C562.273 485.672 575.647 468.954 584.007 448.223C596.713 415.12 596.713 382.018 584.007 348.915C575.647 328.184 562.273 311.466 543.882 298.76C525.826 286.054 503.423 279.701 476.674 279.701Z" fill="white"/>
<path d="M695.755 568.185C689.337 574.603 681.41 577.812 671.972 577.812C662.911 577.812 655.172 574.603 648.755 568.185C642.337 561.767 639.128 554.028 639.128 544.968C639.128 535.53 642.337 527.602 648.755 521.184C655.172 514.767 662.911 511.558 671.972 511.558C681.41 511.558 689.337 514.767 695.755 521.184C702.173 527.602 705.382 535.53 705.382 544.968C705.382 554.028 702.173 561.767 695.755 568.185Z" fill="url(#paint0_linear_4_35)"/>
<defs>
<linearGradient id="paint0_linear_4_35" x1="672.5" y1="511.5" x2="672" y2="578" gradientUnits="userSpaceOnUse">
<stop stop-color="#9332AF"/>
<stop offset="1" stop-color="#41126A"/>
</linearGradient>
<clipPath id="clip0_4_35">
<rect width="263.721" height="477.286" fill="white" transform="translate(93 197.113)"/>
</clipPath>
</defs>
</svg>
