<svg width="2357" height="633" viewBox="0 0 2357 633" fill="none" xmlns="http://www.w3.org/2000/svg">
<path d="M102 364.6V543.4C102 552.6 98.6 560.6 91.8 567.4C85.4 573.8 77.4 577 67.8 577C58.6 577 50.6 573.8 43.8 567.4C37.4 560.6 34.2 552.6 34.2 543.4V364.6C34.2 355 37.4 347 43.8 340.6C50.6 333.8 58.6 330.4 67.8 330.4C77.4 330.4 85.4 333.8 91.8 340.6C98.6 347 102 355 102 364.6ZM42 211.6C33.6 201.6 31.8 190.6 36.6 178.6C41.4 166.2 50.2 159.2 63 157.6C75.8 155.6 86.2 159.6 94.2 169.6L316.2 446.8V190.6C316.2 181.4 319.4 173.6 325.8 167.2C332.6 160.4 340.6 157 349.8 157C359.4 157 367.4 160.4 373.8 167.2C380.6 173.6 384 181.4 384 190.6V543.4H383.4C383.4 550.2 381.4 556.6 377.4 562.6C373.4 568.6 368 572.8 361.2 575.2C354.4 577.2 347.6 577.4 340.8 575.8C334 573.8 328.2 570 323.4 564.4L42 211.6ZM517.611 516.729H737.892C746.426 516.729 753.538 519.752 759.227 525.797C765.272 531.486 768.294 538.597 768.294 547.131C768.294 555.31 765.272 562.421 759.227 568.466C753.538 574.155 746.426 577 737.892 577H487.209C479.031 577 471.919 574.155 465.874 568.466C460.185 562.421 457.34 555.31 457.34 547.131V390.321C457.34 382.143 460.185 375.209 465.874 369.519C471.919 363.475 479.031 360.452 487.209 360.452H675.488C683.666 360.452 690.6 363.475 696.29 369.519C702.334 375.209 705.357 382.143 705.357 390.321C705.357 398.499 702.334 405.611 696.29 411.656C690.6 417.345 683.666 420.19 675.488 420.19H517.611V516.729ZM517.611 263.912V296.448C517.611 304.626 514.588 311.738 508.544 317.783C502.854 323.472 495.743 326.317 487.209 326.317C479.031 326.317 471.919 323.472 465.874 317.783C460.185 311.738 457.34 304.626 457.34 296.448V233.51C457.34 225.332 460.185 218.398 465.874 212.709C471.919 206.664 479.031 203.642 487.209 203.642H737.892C746.426 203.642 753.538 206.664 759.227 212.709C765.272 218.398 768.294 225.51 768.294 234.044C768.294 242.222 765.272 249.334 759.227 255.378C753.538 261.068 746.426 263.912 737.892 263.912H517.611ZM901.582 390.321L803.976 251.112C799.353 244 797.753 236.533 799.176 228.71C800.598 220.532 804.687 214.131 811.443 209.509C818.199 204.531 825.666 202.753 833.845 204.175C842.023 205.597 848.423 209.687 853.046 216.443L938.385 338.051L1023.19 216.443C1028.17 209.687 1034.57 205.597 1042.39 204.175C1050.57 202.753 1058.04 204.531 1064.79 209.509C1071.55 214.131 1075.64 220.532 1077.06 228.71C1078.84 236.533 1077.24 244 1072.26 251.112L974.654 390.321L1072.26 529.53C1077.24 536.642 1078.84 544.287 1077.06 552.465C1075.64 560.288 1071.55 566.688 1064.79 571.666C1058.04 576.289 1050.57 577.889 1042.39 576.467C1034.57 575.044 1028.17 570.955 1023.19 564.199L938.385 442.591L853.046 564.199C848.423 570.955 842.023 575.044 833.845 576.467C825.666 577.889 818.199 576.289 811.443 571.666C804.687 566.688 800.598 560.288 799.176 552.465C797.753 544.287 799.353 536.642 803.976 529.53L901.582 390.321ZM1270.52 224.8H1164.32C1155.12 224.8 1147.12 221.6 1140.32 215.2C1133.92 208.4 1130.72 200.4 1130.72 191.2C1130.72 181.6 1133.92 173.6 1140.32 167.2C1147.12 160.4 1155.12 157 1164.32 157H1270.52C1317.72 157 1357.52 168.6 1389.92 191.8C1422.72 214.6 1446.52 244.8 1461.32 282.4C1472.12 309.6 1477.52 337.8 1477.52 367C1477.52 396.2 1472.12 424.4 1461.32 451.6C1446.52 489.2 1422.72 519.6 1389.92 542.8C1357.52 565.6 1317.72 577 1270.52 577H1164.32C1155.12 577 1147.12 573.8 1140.32 567.4C1133.92 560.6 1130.72 552.6 1130.72 543.4V331.6C1130.72 322.4 1133.92 314.6 1140.32 308.2C1147.12 301.4 1155.12 298 1164.32 298C1173.92 298 1181.92 301.4 1188.32 308.2C1195.12 314.6 1198.52 322.4 1198.52 331.6V509.2H1270.52C1302.52 509.2 1329.32 501.6 1350.92 486.4C1372.92 471.2 1388.92 451.2 1398.92 426.4C1414.12 386.8 1414.12 347.2 1398.92 307.6C1388.92 282.8 1372.92 262.8 1350.92 247.6C1329.32 232.4 1302.52 224.8 1270.52 224.8ZM1721.04 452.725V233.51C1721.04 225.332 1723.89 218.398 1729.58 212.709C1735.62 206.664 1742.73 203.642 1750.91 203.642C1759.44 203.642 1766.56 206.664 1772.25 212.709C1778.29 218.398 1781.31 225.332 1781.31 233.51V452.725C1781.31 487.216 1769.22 516.552 1745.04 540.731C1720.86 564.91 1691.53 577 1657.04 577C1622.9 577 1593.74 564.91 1569.57 540.731C1545.39 516.552 1533.3 487.216 1533.3 452.725V233.51C1533.3 225.332 1536.14 218.398 1541.83 212.709C1547.88 206.664 1554.99 203.642 1563.17 203.642C1571.7 203.642 1578.81 206.664 1584.5 212.709C1590.54 218.398 1593.57 225.332 1593.57 233.51V452.725C1593.57 470.504 1599.79 485.616 1612.24 498.061C1624.68 510.507 1639.61 516.729 1657.04 516.729C1674.82 516.729 1689.93 510.507 1702.37 498.061C1714.82 485.616 1721.04 470.504 1721.04 452.725ZM2130.08 453.792C2145.37 427.123 2150.35 398.677 2145.01 368.453C2139.68 338.228 2125.1 313.338 2101.28 293.781C2077.81 273.869 2050.78 263.912 2020.2 263.912C2012.03 263.912 2004.91 261.068 1998.87 255.378C1993.18 249.334 1990.34 242.222 1990.34 234.044C1990.34 225.51 1993.18 218.398 1998.87 212.709C2004.91 206.664 2012.03 203.642 2020.2 203.642C2065.36 203.642 2105.37 218.22 2140.21 247.378C2175.06 276.18 2196.39 312.805 2204.22 357.252C2212.39 401.699 2205.28 443.658 2182.88 483.127C2160.48 522.241 2127.94 549.798 2085.28 565.799C2042.96 581.445 2000.47 581.8 1957.8 566.866C1915.13 551.576 1882.24 524.552 1859.13 485.794C1836.37 446.68 1828.55 404.9 1835.66 360.452C1843.13 315.649 1864.1 278.491 1898.6 248.978C1904.64 243.644 1911.75 241.333 1919.93 242.044C1928.46 242.4 1935.4 245.778 1940.73 252.178C1946.07 258.223 1948.38 265.512 1947.67 274.046C1947.31 282.225 1943.93 288.981 1937.53 294.314C1914.42 314.227 1900.2 339.295 1894.86 369.519C1889.88 399.744 1895.22 428.19 1910.86 454.858C1926.51 481.171 1948.73 499.484 1977.53 509.796C2006.34 520.107 2035.14 519.93 2063.94 509.262C2092.74 498.595 2114.79 480.105 2130.08 453.792Z" fill="white"/>
<path d="M2304.1 580.1C2296.17 588.033 2286.37 592 2274.7 592C2263.5 592 2253.93 588.033 2246 580.1C2238.07 572.167 2234.1 562.6 2234.1 551.4C2234.1 539.733 2238.07 529.933 2246 522C2253.93 514.067 2263.5 510.1 2274.7 510.1C2286.37 510.1 2296.17 514.067 2304.1 522C2312.03 529.933 2316 539.733 2316 551.4C2316 562.6 2312.03 572.167 2304.1 580.1Z" fill="url(#paint0_linear_4_24)"/>
<defs>
<linearGradient id="paint0_linear_4_24" x1="2276" y1="510" x2="2275" y2="592" gradientUnits="userSpaceOnUse">
<stop stop-color="#9332AF"/>
<stop offset="1" stop-color="#41126A"/>
</linearGradient>
</defs>
</svg>
